<svg width="100%" height="100%" version="1.1" viewBox="0 0 20 20" x="0px" y="0px" class="ScIconSVG-sc-1bgeryd-1 eOJUoR"><g><path fill-rule="evenodd" d="M10 2c4.415 0 8 3.585 8 8s-3.585 8-8 8-8-3.585-8-8 3.585-8 8-8zm5.917 9a6.015 6.015 0 01-3.584 4.529A10 10 0 0013.95 11h1.967zm0-2a6.015 6.015 0 00-3.584-4.529A10 10 0 0113.95 9h1.967zm-3.98 0A8.002 8.002 0 0010 4.708 8.002 8.002 0 008.063 9h3.874zm-3.874 2A8.002 8.002 0 0010 15.292 8.002 8.002 0 0011.937 11H8.063zM6.05 11a10 10 0 001.617 4.529A6.014 6.014 0 014.083 11H6.05zm0-2a10 10 0 011.617-4.529A6.014 6.014 0 004.083 9H6.05z" clip-rule="evenodd"></path></g></svg>